<svg width="98" height="61" viewBox="0 0 98 61" fill="none" xmlns="http://www.w3.org/2000/svg">
<path d="M49.0853 1.15779C75.6768 1.36124 90.8447 15.9778 96.5523 27.5633C97.9717 30.4444 75.6767 7.86303 49.0852 7.65959C22.4937 7.45614 -1.31439 28.636 0.25594 26.8265C5.37355 15.2545 22.4938 0.954345 49.0853 1.15779Z" fill="#C23FF9" fill-opacity="0.33"/>
<path d="M49.0977 27.7998C66.9661 27.9366 77.1557 37.8612 80.9889 45.7281C81.9421 47.6844 66.9649 32.3516 49.0964 32.2149C31.2279 32.0782 15.2258 46.4618 16.2814 45.233C19.7223 37.3747 31.2292 27.6631 49.0977 27.7998Z" fill="#C23FF9" fill-opacity="0.24"/>
<path d="M49.0269 49.3981C59.5815 49.4789 65.5962 55.4941 67.8572 60.2626C68.4195 61.4484 59.5789 52.1553 49.0244 52.0746C38.4698 51.9938 29.0118 60.7152 29.6358 59.9702C31.6716 55.206 38.4724 49.3174 49.0269 49.3981Z" fill="#C23FF9" fill-opacity="0.08"/>
</svg>
